<svg xmlns="http://www.w3.org/2000/svg" viewBox="0 0 280 64" fill="none">
  <!-- Icon: speech bubble with crosshair pin (white) -->
  <g transform="translate(4,4)">
    <path d="M28 2C16.95 2 8 10.06 8 20c0 4.65 1.9 8.9 5 12.1l-2.8 8.4 9.2-4.4C21.5 37.3 24.65 38 28 38c11.05 0 20-8.06 20-18S39.05 2 28 2z"
          stroke="#ffffff" stroke-width="2.5" fill="none"/>
    <circle cx="28" cy="20" r="6" stroke="#ffffff" stroke-width="2" fill="none"/>
    <circle cx="28" cy="20" r="1.5" fill="#ffffff"/>
    <line x1="28" y1="11" x2="28" y2="15" stroke="#ffffff" stroke-width="1.8" stroke-linecap="round"/>
    <line x1="28" y1="25" x2="28" y2="29" stroke="#ffffff" stroke-width="1.8" stroke-linecap="round"/>
    <line x1="19" y1="20" x2="23" y2="20" stroke="#ffffff" stroke-width="1.8" stroke-linecap="round"/>
    <line x1="33" y1="20" x2="37" y2="20" stroke="#ffffff" stroke-width="1.8" stroke-linecap="round"/>
    <path d="M28 34l-3 8h6z" fill="#ffffff" opacity="0.6"/>
  </g>
  <!-- Wordmark -->
  <text x="72" y="42" font-family="'Inter','Segoe UI',system-ui,sans-serif" font-weight="700" font-size="32" fill="#ffffff" letter-spacing="-0.5">
    BACKLINE
  </text>
</svg>
