<svg xmlns="http://www.w3.org/2000/svg" viewBox="0 0 300 200"><rect x="104" y="12" width="92" height="176" rx="12" fill="#fff" stroke="#DDDEDA"/><rect x="112" y="28" width="76" height="144" rx="4" fill="#FAFBFA"/><rect x="132" y="18" width="36" height="4" rx="2" fill="#E2E3E0"/><rect x="120" y="40" width="60" height="7" rx="3" fill="#0B0B0B"/><rect x="120" y="54" width="42" height="7" rx="3" fill="#E2E3E0"/><rect x="120" y="72" width="60" height="30" rx="3" fill="#F1F2F0"/><rect x="120" y="110" width="60" height="30" rx="3" fill="#F1F2F0"/><rect x="120" y="150" width="40" height="12" rx="2" fill="#69DEB2"/><circle cx="176" cy="106" r="12" fill="#69DEB2" stroke="#fff" stroke-width="2.5"/><rect x="196" y="86" width="86" height="40" rx="3" fill="#0B0B0B"/><rect x="206" y="98" width="56" height="5" rx="2.5" fill="#69DEB2"/><rect x="206" y="109" width="38" height="5" rx="2.5" fill="#4A4A4A"/><path d="M188 106h8" stroke="#0B0B0B" stroke-width="1.5" stroke-dasharray="3 3"/></svg>